<svg width="44" height="86" viewBox="0 0 44 86" fill="none" xmlns="http://www.w3.org/2000/svg">
<path id="Vector" d="M40.7442 32.882L27.1599 7.58993C24.6554 2.91778 19.7591 0 14.43 0H0V7.16486H0.00510914C2.66726 7.16486 5.11563 8.62166 6.36732 10.9572L19.9469 36.2543C21.0827 38.3633 21.647 40.679 21.647 42.9999C21.647 45.3211 21.0827 47.6368 19.9469 49.7454L6.36732 75.0423C5.11563 77.3783 2.66726 78.8345 0.00510914 78.8345H0V85.9999H14.43C19.7591 85.9999 24.6554 83.0821 27.1599 78.41L40.7442 53.1177C42.4388 49.9526 43.2889 46.4785 43.2889 42.9999C43.2889 39.5211 42.4388 36.0475 40.7442 32.882Z" fill="#111111"/>
</svg>
