<svg width="40" height="40" viewBox="0 0 40 40" fill="none" xmlns="http://www.w3.org/2000/svg">
<g id="room" opacity="0.2">
<g id="Vector">
<path d="M20 3.33333C13.55 3.33333 8.33331 8.54999 8.33331 15C8.33331 23.75 20 36.6667 20 36.6667C20 36.6667 31.6666 23.75 31.6666 15C31.6666 8.54999 26.45 3.33333 20 3.33333ZM11.6666 15C11.6666 10.4 15.4 6.66666 20 6.66666C24.6 6.66666 28.3333 10.4 28.3333 15C28.3333 19.8 23.5333 26.9833 20 31.4667C16.5333 27.0167 11.6666 19.75 11.6666 15Z" fill="black"/>
<path d="M20 19.1667C22.3012 19.1667 24.1666 17.3012 24.1666 15C24.1666 12.6988 22.3012 10.8333 20 10.8333C17.6988 10.8333 15.8333 12.6988 15.8333 15C15.8333 17.3012 17.6988 19.1667 20 19.1667Z" fill="black"/>
</g>
</g>
</svg>
